<?xml version="1.0" encoding="UTF-8"?>
<svg id="LOGO_2" data-name="LOGO 2" xmlns="http://www.w3.org/2000/svg" xmlns:xlink="http://www.w3.org/1999/xlink" viewBox="0 400 1000 200">
  <defs>
    <linearGradient id="Gradiente_sem_nome_4" data-name="Gradiente sem nome 4" x1="63.73" y1="589.07" x2="134.95" y2="517.85" gradientUnits="userSpaceOnUse">
      <stop offset=".4" stop-color="#dea335"/>
      <stop offset=".62" stop-color="#dfab35"/>
      <stop offset=".91" stop-color="#e3bf36"/>
    </linearGradient>
    <linearGradient id="Gradiente_sem_nome_4-2" data-name="Gradiente sem nome 4" x1="23.87" y1="537.62" x2="63.66" y2="497.83" xlink:href="#Gradiente_sem_nome_4"/>
    <linearGradient id="Gradiente_sem_nome_4-3" data-name="Gradiente sem nome 4" x1="120.76" y1="552.24" x2="189.79" y2="483.21" xlink:href="#Gradiente_sem_nome_4"/>
    <linearGradient id="Gradiente_sem_nome_4-4" data-name="Gradiente sem nome 4" x1="71.2" y1="520.61" x2="127.95" y2="463.86" xlink:href="#Gradiente_sem_nome_4"/>
  </defs>
  <g>
    <polygon points="99.57 562.6 92.66 550.64 31.28 550.64 37.49 562.84 160.84 562.84 167.74 550.64 106.48 550.64 99.57 562.6" fill="url(#Gradiente_sem_nome_4)" fill-rule="evenodd"/>
    <path d="M87.53,543l-29.24-50.53H0l29.24,50.53h58.29ZM50.65,505.3l14.38,24.79h-28.41l-14.38-24.79h28.41Z" fill="url(#Gradiente_sem_nome_4-2)" fill-rule="evenodd"/>
    <path d="M169.8,543l29.24-50.53h-58.29l-29.24,50.53h58.29ZM148.13,505.36h28.41l-14.38,24.79h-28.41l14.38-24.79Z" fill="url(#Gradiente_sem_nome_4-3)" fill-rule="evenodd"/>
    <path d="M132.34,492.23l-32.77-56.76-32.77,56.76,32.77,56.76,32.77-56.76ZM99.57,464.33l16.11,27.91-16.11,27.91-16.11-27.91,16.11-27.91Z" fill="url(#Gradiente_sem_nome_4-4)" fill-rule="evenodd"/>
  </g>
  <g>
    <path d="M220.39,562.89v-69.25h31.21c3.25,0,6.26.68,9.02,2.05,2.76,1.37,5.15,3.15,7.17,5.36,2.01,2.21,3.59,4.71,4.73,7.51,1.14,2.8,1.71,5.62,1.71,8.48,0,2.15-.26,4.21-.78,6.19-.52,1.98-1.27,3.85-2.24,5.61-.97,1.76-2.16,3.33-3.56,4.73-1.4,1.4-2.97,2.58-4.73,3.56l15.21,25.75h-18.04l-13.26-22.33h-10.44v22.33h-15.99ZM236.39,526.61h14.63c1.88,0,3.51-.89,4.88-2.68,1.37-1.79,2.05-4.08,2.05-6.88s-.78-5.14-2.34-6.83c-1.56-1.69-3.25-2.54-5.07-2.54h-14.14v18.92Z" fill="#56060c"/>
    <path d="M332.29,548.85v14.04h-48.67v-69.25h47.79v14.04h-31.8v13.46h27.31v12.97h-27.31v14.73h32.67Z" fill="#56060c"/>
    <path d="M339.93,562.89v-69.25h15.99v69.25h-15.99Z" fill="#56060c"/>
    <path d="M382.8,562.89v-69.25h25.84c5.72,0,10.73.91,15.02,2.73,4.29,1.82,7.88,4.29,10.78,7.41,2.89,3.12,5.07,6.78,6.54,10.97,1.46,4.19,2.19,8.67,2.19,13.41,0,5.27-.81,10.03-2.44,14.29-1.63,4.26-3.95,7.9-6.97,10.92-3.02,3.02-6.67,5.36-10.92,7.02-4.26,1.66-8.99,2.49-14.19,2.49h-25.84ZM426.89,528.17c0-3.05-.41-5.83-1.22-8.34-.81-2.5-2-4.66-3.56-6.49-1.56-1.82-3.48-3.22-5.75-4.19-2.28-.98-4.84-1.46-7.71-1.46h-9.85v41.16h9.85c2.93,0,5.53-.52,7.8-1.56,2.28-1.04,4.18-2.49,5.71-4.34,1.53-1.85,2.7-4.03,3.51-6.54.81-2.5,1.22-5.25,1.22-8.24Z" fill="#56060c"/>
    <path d="M537.51,527.69c0-4.16.78-8.31,2.34-12.43s3.84-7.82,6.83-11.07c2.99-3.25,6.63-5.88,10.92-7.9,4.29-2.01,9.17-3.02,14.63-3.02,6.5,0,12.14,1.4,16.92,4.19,4.78,2.8,8.34,6.44,10.68,10.92l-12.29,8.58c-.78-1.82-1.77-3.33-2.97-4.54-1.2-1.2-2.52-2.18-3.95-2.93-1.43-.75-2.89-1.27-4.39-1.56-1.5-.29-2.96-.44-4.39-.44-3.06,0-5.72.62-8,1.85-2.28,1.24-4.16,2.83-5.66,4.78-1.5,1.95-2.6,4.16-3.32,6.63-.72,2.47-1.07,4.97-1.07,7.51,0,2.73.42,5.36,1.27,7.9.84,2.54,2.06,4.78,3.66,6.73,1.59,1.95,3.51,3.5,5.75,4.63,2.24,1.14,4.76,1.71,7.56,1.71,1.43,0,2.91-.18,4.44-.54,1.53-.36,2.99-.91,4.39-1.66,1.4-.75,2.68-1.72,3.85-2.93s2.11-2.68,2.83-4.44l13.07,7.71c-1.04,2.54-2.58,4.81-4.63,6.83-2.05,2.02-4.41,3.71-7.07,5.07-2.67,1.37-5.5,2.41-8.48,3.12-2.99.71-5.92,1.07-8.78,1.07-5.01,0-9.61-1.02-13.8-3.07-4.19-2.05-7.8-4.76-10.82-8.14-3.02-3.38-5.37-7.22-7.02-11.51-1.66-4.29-2.49-8.65-2.49-13.07Z" fill="#56060c"/>
    <path d="M624.35,493.65h14.43l25.26,69.25h-16.39l-5.36-15.51h-21.55l-5.27,15.51h-16.39l25.26-69.25ZM639.66,536.37l-8.09-24.48-8.29,24.48h16.39Z" fill="#56060c"/>
    <path d="M712.48,513.93c-.2-.26-.88-.75-2.05-1.46-1.17-.72-2.63-1.46-4.39-2.24-1.76-.78-3.67-1.46-5.75-2.05-2.08-.58-4.16-.88-6.24-.88-5.72,0-8.58,1.92-8.58,5.75,0,1.17.31,2.15.93,2.93.62.78,1.53,1.48,2.73,2.1,1.2.62,2.71,1.19,4.53,1.71s3.93,1.1,6.34,1.75c3.32.91,6.31,1.9,8.97,2.97,2.67,1.07,4.92,2.41,6.78,4,1.85,1.6,3.28,3.53,4.29,5.8,1.01,2.28,1.51,5.01,1.51,8.19,0,3.9-.73,7.2-2.19,9.9-1.46,2.7-3.4,4.88-5.8,6.54-2.41,1.66-5.17,2.86-8.29,3.61s-6.34,1.12-9.66,1.12c-2.54,0-5.14-.2-7.8-.59-2.67-.39-5.27-.96-7.8-1.71-2.54-.75-4.99-1.64-7.36-2.68-2.37-1.04-4.57-2.24-6.58-3.61l7.02-13.95c.26.33,1.1.94,2.54,1.85,1.43.91,3.2,1.82,5.32,2.73,2.11.91,4.47,1.72,7.07,2.44,2.6.72,5.23,1.07,7.9,1.07,5.66,0,8.48-1.72,8.48-5.17,0-1.3-.42-2.37-1.27-3.22-.85-.84-2.02-1.61-3.51-2.29s-3.27-1.32-5.31-1.9c-2.05-.59-4.28-1.24-6.68-1.95-3.19-.98-5.95-2.03-8.29-3.17-2.34-1.14-4.28-2.45-5.8-3.95-1.53-1.5-2.67-3.22-3.41-5.17-.75-1.95-1.12-4.23-1.12-6.83,0-3.64.68-6.86,2.05-9.66,1.37-2.8,3.22-5.15,5.56-7.07,2.34-1.92,5.05-3.37,8.14-4.34,3.09-.98,6.35-1.46,9.8-1.46,2.4,0,4.78.23,7.12.68,2.34.46,4.58,1.04,6.73,1.76,2.15.72,4.14,1.53,6,2.44,1.85.91,3.56,1.82,5.12,2.73l-7.02,13.26Z" fill="#56060c"/>
    <path d="M771.97,513.93c-.2-.26-.88-.75-2.05-1.46-1.17-.72-2.63-1.46-4.39-2.24-1.76-.78-3.67-1.46-5.75-2.05-2.08-.58-4.16-.88-6.24-.88-5.72,0-8.58,1.92-8.58,5.75,0,1.17.31,2.15.93,2.93.62.78,1.53,1.48,2.73,2.1,1.2.62,2.71,1.19,4.54,1.71,1.82.52,3.93,1.1,6.34,1.75,3.32.91,6.31,1.9,8.97,2.97,2.67,1.07,4.92,2.41,6.78,4,1.85,1.6,3.28,3.53,4.29,5.8,1.01,2.28,1.51,5.01,1.51,8.19,0,3.9-.73,7.2-2.19,9.9-1.46,2.7-3.4,4.88-5.8,6.54-2.41,1.66-5.17,2.86-8.29,3.61s-6.34,1.12-9.66,1.12c-2.54,0-5.14-.2-7.8-.59-2.67-.39-5.27-.96-7.8-1.71-2.54-.75-4.99-1.64-7.36-2.68-2.37-1.04-4.57-2.24-6.58-3.61l7.02-13.95c.26.33,1.1.94,2.54,1.85,1.43.91,3.2,1.82,5.32,2.73,2.11.91,4.47,1.72,7.07,2.44,2.6.72,5.23,1.07,7.9,1.07,5.66,0,8.48-1.72,8.48-5.17,0-1.3-.42-2.37-1.27-3.22-.85-.84-2.02-1.61-3.51-2.29s-3.27-1.32-5.31-1.9c-2.05-.59-4.28-1.24-6.68-1.95-3.19-.98-5.95-2.03-8.29-3.17-2.34-1.14-4.28-2.45-5.8-3.95-1.53-1.5-2.67-3.22-3.41-5.17-.75-1.95-1.12-4.23-1.12-6.83,0-3.64.68-6.86,2.05-9.66,1.37-2.8,3.22-5.15,5.56-7.07,2.34-1.92,5.06-3.37,8.15-4.34,3.09-.98,6.35-1.46,9.8-1.46,2.4,0,4.78.23,7.12.68,2.34.46,4.58,1.04,6.73,1.76,2.15.72,4.14,1.53,6,2.44,1.85.91,3.56,1.82,5.12,2.73l-7.02,13.26Z" fill="#56060c"/>
    <path d="M788.29,562.89v-69.25h15.99v69.25h-15.99Z" fill="#56060c"/>
    <path d="M829.81,523.3v39.6h-15.99v-69.25h12.48l32.28,40.67v-40.67h15.99v69.25h-12.87l-31.89-39.6Z" fill="#56060c"/>
    <g>
      <path d="M482.36,512.43c-8.64,0-15.66,7.03-15.66,15.66s7.03,15.66,15.66,15.66,15.66-7.03,15.66-15.66-7.03-15.66-15.66-15.66ZM482.36,538.05c-5.5,0-9.96-4.46-9.96-9.96s4.46-9.96,9.96-9.96,9.96,4.46,9.96,9.96-4.46,9.96-9.96,9.96Z" fill="#56060c"/>
      <path d="M482.36,491.66c-20.09,0-36.43,16.34-36.43,36.43s16.34,36.43,36.43,36.43,36.43-16.34,36.43-36.43-16.34-36.43-36.43-36.43ZM501.61,508.3l2.42-2.48c4.05,3.94,7.01,8.98,8.44,14.62l-3.09.95c-.36.11-.73.16-1.09.16-1.46,0-2.84-.88-3.38-2.28-.86-2.21-2.05-4.28-3.53-6.16-1.14-1.45-1.05-3.52.22-4.82ZM501.27,528.09c0,10.43-8.48,18.91-18.91,18.91s-18.91-8.48-18.91-18.91,8.48-18.91,18.91-18.91,18.91,8.48,18.91,18.91ZM496.18,500.77c1.57,0,2.84,1.28,2.84,2.85s-1.28,2.85-2.84,2.85-2.85-1.28-2.85-2.85,1.28-2.85,2.85-2.85ZM482.36,496.99c2.86,0,5.61.42,8.24,1.14l-.84,3.3c-.45,1.79-2.17,2.95-4.03,2.69-2.37-.33-4.84-.31-7.2.07-.2.03-.4.05-.6.05-1.66,0-3.12-1.09-3.53-2.73l-.82-3.24c2.79-.82,5.72-1.28,8.77-1.28ZM467.05,500.77c1.57,0,2.84,1.28,2.84,2.85s-1.28,2.85-2.84,2.85-2.85-1.28-2.85-2.85,1.28-2.85,2.85-2.85ZM459.96,506.56l2.51,2.46c1.27,1.25,1.44,3.29.37,4.73-1.38,1.88-2.49,3.95-3.27,6.14-.52,1.44-1.9,2.35-3.38,2.35-.33,0-.67-.05-1.01-.14l-3.13-.9c1.27-5.61,4.06-10.64,7.91-14.65ZM450.55,529.28c0-1.57,1.28-2.85,2.85-2.85s2.84,1.28,2.84,2.85-1.28,2.85-2.84,2.85-2.85-1.28-2.85-2.85ZM463.82,548.74h0l-2.31,2.36c-4-3.63-7.07-8.27-8.76-13.53l3.38-1.05c1.7-.53,3.57.3,4.34,1.92.92,1.94,2.1,3.75,3.49,5.37,1.24,1.45,1.19,3.57-.13,4.92ZM468.36,556.14c-1.57,0-2.85-1.28-2.85-2.85s1.28-2.85,2.85-2.85,2.84,1.28,2.84,2.85-1.28,2.85-2.84,2.85ZM482.36,559.2c-2.86,0-5.62-.42-8.26-1.15l.83-3.3c.46-1.79,2.18-2.94,4.03-2.69,2.06.29,4.2.31,6.29.06,1.82-.22,3.54.94,3.98,2.7l.85,3.36c-2.48.64-5.06,1.01-7.73,1.01ZM495.73,556.49c-1.57,0-2.85-1.28-2.85-2.85s1.28-2.85,2.85-2.85,2.84,1.28,2.84,2.85-1.28,2.85-2.84,2.85ZM503.37,550.96l-2.32-2.28c-1.35-1.32-1.43-3.5-.2-4.95,1.44-1.7,2.63-3.58,3.55-5.6.75-1.65,2.56-2.48,4.29-1.98l3.43.98c-1.64,5.38-4.71,10.12-8.75,13.83ZM510.64,532.02c-1.57,0-2.85-1.28-2.85-2.85s1.28-2.85,2.85-2.85,2.84,1.28,2.84,2.85-1.28,2.85-2.84,2.85Z" fill="#56060c"/>
    </g>
    <circle cx="915.95" cy="527.97" r="13.22" fill="#56060c"/>
    <path d="M915.95,491.69c-20.01,0-36.29,16.28-36.29,36.29s16.28,36.29,36.29,36.29,36.29-16.28,36.29-36.29-16.28-36.29-36.29-36.29ZM935.11,508.26l2.41-2.46c4.03,3.93,6.98,8.94,8.41,14.56l-3.07.95c-.36.11-.72.16-1.08.16-1.46,0-2.83-.87-3.37-2.27-.86-2.2-2.04-4.27-3.52-6.14-1.14-1.44-1.04-3.51.22-4.8ZM929.72,500.96c1.45,0,2.63,1.18,2.63,2.63s-1.18,2.63-2.63,2.63-2.63-1.18-2.63-2.63,1.18-2.63,2.63-2.63ZM915.94,496.99c2.85,0,5.59.42,8.21,1.14l-.83,3.28c-.45,1.79-2.2,2.93-4.02,2.68-2.35-.33-4.81-.31-7.17.07-.2.03-.4.05-.59.05-1.65,0-3.11-1.09-3.52-2.72l-.82-3.22c2.77-.82,5.7-1.28,8.74-1.28ZM900.71,500.96c1.45,0,2.63,1.18,2.63,2.63s-1.18,2.63-2.63,2.63-2.63-1.18-2.63-2.63,1.18-2.63,2.63-2.63ZM915.95,509.75c10.06,0,18.22,8.16,18.22,18.22s-8.16,18.22-18.22,18.22-18.22-8.16-18.22-18.22,8.16-18.22,18.22-18.22ZM893.64,506.53l2.5,2.45c1.27,1.25,1.43,3.27.37,4.71-1.38,1.88-2.48,3.93-3.26,6.11-.51,1.44-1.89,2.35-3.37,2.35-.33,0-.67-.05-1-.14l-3.12-.89c1.27-5.59,4.04-10.6,7.88-14.59ZM884.47,529.15c0-1.45,1.18-2.63,2.63-2.63s2.63,1.18,2.63,2.63-1.18,2.63-2.63,2.63-2.63-1.18-2.63-2.63ZM897.48,548.54l-2.3,2.35c-3.99-3.62-7.05-8.23-8.73-13.48l3.37-1.04c1.7-.53,3.56.3,4.33,1.91.91,1.93,2.08,3.73,3.47,5.35,1.24,1.45,1.18,3.55-.13,4.9ZM902.01,555.71c-1.45,0-2.63-1.18-2.63-2.63s1.18-2.63,2.63-2.63,2.63,1.18,2.63,2.63-1.18,2.63-2.63,2.63ZM915.94,558.95c-2.85,0-5.6-.42-8.23-1.14l.83-3.28c.45-1.79,2.17-2.94,4.02-2.68,2.05.29,4.2.31,6.26.06h0c1.82-.21,3.53.94,3.97,2.69l.85,3.34c-2.47.63-5.04,1.01-7.7,1.01ZM929.27,556.06c-1.45,0-2.63-1.18-2.63-2.63s1.18-2.63,2.63-2.63,2.63,1.18,2.63,2.63-1.18,2.63-2.63,2.63ZM936.86,550.75l-2.31-2.27c-1.34-1.32-1.43-3.48-.2-4.93,1.43-1.69,2.62-3.56,3.54-5.57.75-1.64,2.55-2.47,4.27-1.97l3.41.98c-1.63,5.36-4.69,10.08-8.71,13.78ZM944.12,531.68c-1.45,0-2.63-1.18-2.63-2.63s1.18-2.63,2.63-2.63,2.63,1.18,2.63,2.63-1.18,2.63-2.63,2.63Z" fill="#56060c"/>
  </g>
</svg>